<?xml version="1.0" encoding="utf-8"?>
<!-- Generator: Adobe Illustrator 21.1.0, SVG Export Plug-In . SVG Version: 6.00 Build 0)  -->
<svg version="1.1" id="Layer_1" xmlns="http://www.w3.org/2000/svg" xmlns:xlink="http://www.w3.org/1999/xlink" x="0px" y="0px"
	 viewBox="0 0 232.8 232.8" style="enable-background:new 0 0 232.8 232.8;" xml:space="preserve">
<style type="text/css">
	.st0{fill:#FFFFFF;}
</style>
<rect x="0" y="-0.4" class="st0" width="233" height="117"/>
<rect width="232.8" height="232.8"/>
<rect class="st0" width="232.8" height="116.4"/>
<g>
	<path d="M29.1,87.8h-0.2v28.8H13.5v-73h15.4v7.5h0.2c3.8-5.8,9.2-8.7,16.1-8.7c6.5,0,11.5,2.2,15,6.7c3.5,4.4,5.3,10.5,5.3,18.1
		c0,8.3-2.1,15-6.2,20.1c-4.1,5-9.6,7.6-16.4,7.6C36.9,94.8,32.3,92.5,29.1,87.8z M28.7,67.3v4c0,3.5,0.9,6.3,2.7,8.4
		c1.8,2.2,4.2,3.3,7.2,3.3c3.5,0,6.2-1.4,8.2-4.1c1.9-2.7,2.9-6.6,2.9-11.5c0-8.8-3.4-13.2-10.3-13.2c-3.2,0-5.7,1.2-7.7,3.6
		S28.7,63.3,28.7,67.3z"/>
	<path d="M117.1,93.6h-14.6v-7.2h-0.2C99,92,94,94.8,87.4,94.8c-4.9,0-8.7-1.4-11.5-4.1c-2.8-2.8-4.2-6.4-4.2-11
		c0-9.7,5.7-15.3,17.2-16.8l13.6-1.8c0-5.5-3-8.2-8.9-8.2c-6,0-11.6,1.8-17,5.3V46.6c2.1-1.1,5.1-2.1,8.8-2.9
		c3.7-0.8,7.1-1.3,10.2-1.3c14.3,0,21.4,7.1,21.4,21.3V93.6z M102.6,73.3v-3.4l-9.1,1.2c-5,0.7-7.5,2.9-7.5,6.8
		c0,1.8,0.6,3.2,1.8,4.3s2.9,1.7,5,1.7c2.9,0,5.3-1,7.1-3C101.7,78.9,102.6,76.3,102.6,73.3z"/>
	<path d="M170.9,93.6h-14.6v-7.2h-0.2c-3.4,5.6-8.3,8.4-14.9,8.4c-4.9,0-8.7-1.4-11.5-4.1c-2.8-2.8-4.2-6.4-4.2-11
		c0-9.7,5.7-15.3,17.2-16.8l13.6-1.8c0-5.5-3-8.2-8.9-8.2c-6,0-11.6,1.8-17,5.3V46.6c2.1-1.1,5.1-2.1,8.8-2.9
		c3.7-0.8,7.1-1.3,10.2-1.3c14.3,0,21.4,7.1,21.4,21.3V93.6z M156.4,73.3v-3.4l-9.1,1.2c-5,0.7-7.5,2.9-7.5,6.8
		c0,1.8,0.6,3.2,1.8,4.3s2.9,1.7,5,1.7c2.9,0,5.3-1,7.1-3C155.5,78.9,156.4,76.3,156.4,73.3z"/>
	<path d="M179.9,92.3V79.8c2.5,1.5,5.1,2.7,7.6,3.4c2.5,0.7,4.9,1.1,7.2,1.1c2.7,0,4.9-0.4,6.5-1.1c1.6-0.7,2.4-1.9,2.4-3.4
		c0-1-0.4-1.8-1.1-2.4c-0.7-0.7-1.6-1.2-2.8-1.7s-2.4-0.9-3.7-1.3c-1.3-0.4-2.6-0.8-3.9-1.3c-2-0.7-3.7-1.6-5.2-2.4
		c-1.5-0.9-2.8-1.9-3.8-3c-1-1.1-1.8-2.5-2.3-4c-0.5-1.5-0.8-3.3-0.8-5.3c0-2.8,0.6-5.2,1.8-7.2c1.2-2,2.8-3.7,4.9-5
		c2-1.3,4.4-2.2,7-2.8c2.6-0.6,5.3-0.9,8.2-0.9c2.2,0,4.5,0.2,6.7,0.5c2.3,0.3,4.5,0.8,6.7,1.5v11.9c-2-1.1-4-2-6.3-2.6
		c-2.2-0.6-4.4-0.9-6.6-0.9c-1,0-2,0.1-2.9,0.3c-0.9,0.2-1.7,0.4-2.4,0.8s-1.2,0.8-1.6,1.3s-0.6,1.1-0.6,1.8c0,0.9,0.3,1.7,0.9,2.3
		c0.6,0.7,1.4,1.2,2.3,1.7c0.9,0.5,2,0.9,3.1,1.3c1.2,0.4,2.3,0.8,3.4,1.1c2.1,0.7,3.9,1.5,5.6,2.3c1.7,0.8,3.1,1.8,4.3,3
		c1.2,1.1,2.1,2.5,2.7,4c0.6,1.5,1,3.4,1,5.5c0,3-0.6,5.5-1.9,7.6s-3,3.8-5.1,5.1s-4.6,2.3-7.4,2.9s-5.7,0.9-8.7,0.9
		C189.6,94.8,184.5,94,179.9,92.3z"/>
</g>
<g>
	<path class="st0" d="M29.1,184.8h-0.2v5.8H13.5v-74h15.4v31.5h0.2c3.8-5.8,9.2-8.7,16.3-8.7c6.4,0,11.4,2.2,14.9,6.6
		c3.5,4.4,5.2,10.5,5.2,18.2c0,8.3-2,15-6.1,20.1c-4.1,5-9.5,7.6-16.3,7.6C36.9,191.8,32.3,189.5,29.1,184.8z M28.7,163.7v5.1
		c0,3.2,0.9,5.9,2.8,8c1.9,2.1,4.2,3.2,7.1,3.2c3.5,0,6.2-1.4,8.2-4.1c1.9-2.7,2.9-6.6,2.9-11.5c0-4.1-0.9-7.4-2.7-9.7
		c-1.8-2.3-4.3-3.5-7.6-3.5c-3.1,0-5.7,1.2-7.7,3.5C29.7,157,28.7,160,28.7,163.7z"/>
	<path class="st0" d="M99.3,191.8c-8.3,0-14.9-2.3-19.7-7c-4.8-4.7-7.2-11-7.2-19c0-8.3,2.5-14.7,7.4-19.4c4.9-4.7,11.6-7,20.1-7
		c8.3,0,14.8,2.3,19.5,7c4.7,4.7,7.1,10.8,7.1,18.5c0,8.3-2.4,14.9-7.3,19.7C114.5,189.4,107.8,191.8,99.3,191.8z M99.7,151.2
		c-3.6,0-6.5,1.3-8.5,3.8c-2,2.5-3,6.1-3,10.6c0,9.6,3.9,14.4,11.6,14.4c7.4,0,11.1-4.9,11.1-14.8
		C110.9,155.9,107.2,151.2,99.7,151.2z"/>
	<path class="st0" d="M184.9,140.6l-16.5,24.2l16.4,25.8h-17.8l-7.2-13.5c-0.6-1.1-1.3-2.6-2.1-4.5h-0.2c-0.5,1.4-1.2,2.8-2,4.4
		l-7.3,13.6h-17.7l16.9-24.9l-15.9-25.1h17.9l7.1,14c0.9,1.9,1.6,3.4,2,4.7h0.2c0.5-1.5,1.2-3.1,2.1-4.8l7.3-13.9H184.9z"/>
</g>
</svg>
